<svg xmlns="http://www.w3.org/2000/svg" xmlns:xlink="http://www.w3.org/1999/xlink" width="120" height="120" viewBox="0 0 120 120">
  <defs>
    <clipPath id="clip-path">
      <rect id="Rectangle_20" data-name="Rectangle 20" width="120" height="120" transform="translate(1495 1162)" fill="#fff" stroke="#707070" stroke-width="1"/>
    </clipPath>
  </defs>
  <g id="Mask_Group_4" data-name="Mask Group 4" transform="translate(-1495 -1162)" opacity="0.2" clip-path="url(#clip-path)">
    <path id="gate" d="M119.62,10.443a2.227,2.227,0,0,0-1.849-.985h-2.527a6.428,6.428,0,1,0-11.46,0h-3.37a2.229,2.229,0,0,0-1.942,3.322l2.9,5.151a2.233,2.233,0,0,0,1.544,1.1v5.587a34.078,34.078,0,0,1-7.257-.934,1.636,1.636,0,0,0-.284-.074c-5.2-1.388-7.855-3.992-10.611-6.7-3.808-3.739-7.738-7.6-17.8-7.991a4.074,4.074,0,0,0-4.023-3.457H57.061a4.074,4.074,0,0,0-4.023,3.457c-10.066.392-14,4.252-17.8,7.991-2.756,2.706-5.407,5.31-10.611,6.7a1.658,1.658,0,0,0-.284.074,34.079,34.079,0,0,1-7.257.934V19.028a2.233,2.233,0,0,0,1.544-1.1l2.9-5.149a2.229,2.229,0,0,0-1.942-3.322h-3.37a6.429,6.429,0,1,0-11.461,0H2.229a2.229,2.229,0,0,0-2.065,3.07l2.1,5.15a2.219,2.219,0,0,0,1.625,1.343V29.044a1.758,1.758,0,0,0,3.516,0V19.065h6.162v48.6H7.4V36.1a1.758,1.758,0,0,0-3.516,0V68.95a2.231,2.231,0,0,0,2.228,2.228H113.883a2.231,2.231,0,0,0,2.228-2.228V29.93a1.758,1.758,0,0,0-3.516,0V67.662h-6.162v-48.6H112.6v3.889a1.758,1.758,0,0,0,3.516,0V19.022a2.223,2.223,0,0,0,1.625-1.344l2.1-5.15a2.227,2.227,0,0,0-.215-2.085ZM106.6,6.546a2.913,2.913,0,1,1,2.913,2.912A2.916,2.916,0,0,1,106.6,6.546Zm-3.683,49.72H96.834V27.515a40.95,40.95,0,0,0,6.084.615Zm-16.2,0V23.329a22.345,22.345,0,0,0,6.6,3.322V56.266ZM83.205,20.3V56.266h-6.6V14.789a26.309,26.309,0,0,1,5.7,4.628c.3.292.6.586.9.881Zm-16.2-7.86a25.888,25.888,0,0,1,6.083.907v42.92H67.007ZM52.993,56.266H46.909V13.346a25.9,25.9,0,0,1,6.084-.907Zm-9.6-41.476V56.266H36.8V20.3c.306-.295.605-.589.9-.881a26.309,26.309,0,0,1,5.7-4.628ZM26.681,56.266V26.651a22.312,22.312,0,0,0,6.6-3.322V56.266Zm-3.516-28.75v28.75H17.082V28.131A40.963,40.963,0,0,0,23.166,27.515ZM7.572,6.546a2.913,2.913,0,1,1,2.913,2.912A2.917,2.917,0,0,1,7.572,6.546Zm-2.379,9L4.144,12.974H17.383l-1.45,2.575ZM17.082,59.781H52.993v7.88H17.082ZM56.508,9.529a.553.553,0,0,1,.552-.552h1.2V22.871a1.758,1.758,0,1,0,3.516,0V8.977h1.166a.553.553,0,0,1,.553.552V67.661H61.773V29.93a1.758,1.758,0,0,0-3.516,0V67.661H56.508Zm46.41,58.132H67.008v-7.88h35.911Zm1.149-52.112-1.45-2.575h13.239l-1.049,2.575Zm0,0" transform="translate(1495 1186.352)"/>
  </g>
</svg>
