<svg xmlns="http://www.w3.org/2000/svg" xmlns:xlink="http://www.w3.org/1999/xlink" width="120" height="120" viewBox="0 0 120 120">
  <defs>
    <clipPath id="clip-path">
      <rect id="Rectangle_19" data-name="Rectangle 19" width="120" height="120" transform="translate(1085 1162)" fill="#fff" stroke="#707070" stroke-width="1"/>
    </clipPath>
  </defs>
  <g id="Mask_Group_3" data-name="Mask Group 3" transform="translate(-1085 -1162)" opacity="0.2" clip-path="url(#clip-path)">
    <g id="warranty" transform="translate(1085 1162)">
      <g id="Group_11" data-name="Group 11">
        <g id="Group_10" data-name="Group 10">
          <path id="Path_15" data-name="Path 15" d="M112.538,57.923A24.034,24.034,0,0,1,92.5,47.2l-1.606-2.41L89.286,47.2a24.034,24.034,0,0,1-20.04,10.725H61.931V88.885a25.156,25.156,0,0,0,9,19.238H31.038V100.4h25.1V65.647H15.592V81.093H4.007V3.862H88.962V38.616h3.862V0H.146V83.823l28.162,28.162H76.865L90.893,120l16.315-9.322a25.154,25.154,0,0,0,12.647-21.793V57.923Zm-85.362,47.47L6.737,84.954H27.177v20.439Zm-7.723-24.3V69.508H52.277V96.539H31.038V81.093Zm96.539,7.793a21.288,21.288,0,0,1-10.7,18.441l-14.4,8.229-14.4-8.229a21.288,21.288,0,0,1-10.7-18.441v-27.1h3.454A27.886,27.886,0,0,0,90.893,51.517a27.886,27.886,0,0,0,21.646,10.268h3.454Z"/>
        </g>
      </g>
      <g id="Group_13" data-name="Group 13">
        <g id="Group_12" data-name="Group 12">
          <path id="Path_16" data-name="Path 16" d="M108.27,77.231V88.885a13.547,13.547,0,0,1-6.81,11.735l1.915,3.352a17.413,17.413,0,0,0,8.756-15.087V77.231Z"/>
        </g>
      </g>
      <g id="Group_15" data-name="Group 15">
        <g id="Group_14" data-name="Group 14">
          <path id="Path_17" data-name="Path 17" d="M11.73,7.723V19.308H81.239V7.723Zm65.647,7.723H15.592V11.585H77.377Z"/>
        </g>
      </g>
      <g id="Group_17" data-name="Group 17">
        <g id="Group_16" data-name="Group 16">
          <path id="Path_18" data-name="Path 18" d="M106.9,66.212,81.239,91.878,74.881,85.52l-2.73,2.73,9.088,9.088,28.4-28.4Z"/>
        </g>
      </g>
      <g id="Group_19" data-name="Group 19">
        <g id="Group_18" data-name="Group 18">
          <rect id="Rectangle_21" data-name="Rectangle 21" width="25.1" height="3.862" transform="translate(23.315 73.37)"/>
        </g>
      </g>
      <g id="Group_21" data-name="Group 21">
        <g id="Group_20" data-name="Group 20">
          <rect id="Rectangle_22" data-name="Rectangle 22" width="13.515" height="3.862" transform="translate(34.9 81.093)"/>
        </g>
      </g>
      <g id="Group_23" data-name="Group 23">
        <g id="Group_22" data-name="Group 22">
          <rect id="Rectangle_23" data-name="Rectangle 23" width="13.515" height="3.862" transform="translate(34.9 88.816)"/>
        </g>
      </g>
      <g id="Group_25" data-name="Group 25">
        <g id="Group_24" data-name="Group 24">
          <rect id="Rectangle_24" data-name="Rectangle 24" width="61.785" height="3.862" transform="translate(11.73 27.031)"/>
        </g>
      </g>
      <g id="Group_27" data-name="Group 27">
        <g id="Group_26" data-name="Group 26">
          <rect id="Rectangle_25" data-name="Rectangle 25" width="61.785" height="3.862" transform="translate(11.73 34.754)"/>
        </g>
      </g>
      <g id="Group_29" data-name="Group 29">
        <g id="Group_28" data-name="Group 28">
          <rect id="Rectangle_26" data-name="Rectangle 26" width="61.785" height="3.862" transform="translate(11.73 42.477)"/>
        </g>
      </g>
      <g id="Group_31" data-name="Group 31">
        <g id="Group_30" data-name="Group 30">
          <rect id="Rectangle_27" data-name="Rectangle 27" width="36.685" height="3.862" transform="translate(11.73 50.2)"/>
        </g>
      </g>
      <g id="Group_33" data-name="Group 33">
        <g id="Group_32" data-name="Group 32">
          <rect id="Rectangle_28" data-name="Rectangle 28" width="36.685" height="3.862" transform="translate(11.73 57.923)"/>
        </g>
      </g>
      <g id="Group_35" data-name="Group 35">
        <g id="Group_34" data-name="Group 34">
          <rect id="Rectangle_29" data-name="Rectangle 29" width="3.862" height="3.862" transform="translate(77.377 27.031)"/>
        </g>
      </g>
      <g id="Group_37" data-name="Group 37">
        <g id="Group_36" data-name="Group 36">
          <rect id="Rectangle_30" data-name="Rectangle 30" width="3.862" height="3.862" transform="translate(77.377 34.754)"/>
        </g>
      </g>
      <g id="Group_39" data-name="Group 39">
        <g id="Group_38" data-name="Group 38">
          <rect id="Rectangle_31" data-name="Rectangle 31" width="3.862" height="3.862" transform="translate(77.377 42.477)"/>
        </g>
      </g>
      <g id="Group_41" data-name="Group 41">
        <g id="Group_40" data-name="Group 40">
          <rect id="Rectangle_32" data-name="Rectangle 32" width="3.862" height="3.862" transform="translate(52.277 50.2)"/>
        </g>
      </g>
      <g id="Group_43" data-name="Group 43">
        <g id="Group_42" data-name="Group 42">
          <rect id="Rectangle_33" data-name="Rectangle 33" width="3.862" height="3.862" transform="translate(52.277 57.923)"/>
        </g>
      </g>
    </g>
  </g>
</svg>
