<svg xmlns="http://www.w3.org/2000/svg" xmlns:xlink="http://www.w3.org/1999/xlink" width="120" height="120" viewBox="0 0 120 120">
  <defs>
    <clipPath id="clip-path">
      <rect id="Rectangle_18" data-name="Rectangle 18" width="120" height="120" transform="translate(695 1162)" fill="#fff" stroke="#707070" stroke-width="1"/>
    </clipPath>
  </defs>
  <g id="Mask_Group_2" data-name="Mask Group 2" transform="translate(-695 -1162)" opacity="0.2" clip-path="url(#clip-path)">
    <g id="specialization" transform="translate(695 1162)">
      <g id="Group_9" data-name="Group 9">
        <g id="Group_8" data-name="Group 8">
          <path id="Path_9" data-name="Path 9" d="M61.59,74.345a1.9,1.9,0,0,0-2.524-.9,30.17,30.17,0,0,1-4.792,1.793,1.894,1.894,0,0,0-1.347,1.453l-2,10.021a2.13,2.13,0,0,1-2.083,1.708H43.371a2.13,2.13,0,0,1-2.083-1.708l-2-10.021a1.9,1.9,0,0,0-1.347-1.453,30.1,30.1,0,0,1-6.654-2.757,1.9,1.9,0,0,0-1.981.074l-8.5,5.67a2.131,2.131,0,0,1-2.681-.266L14.25,74.093a2.131,2.131,0,0,1-.266-2.681l5.67-8.5a1.894,1.894,0,0,0,.074-1.981,30.1,30.1,0,0,1-2.757-6.654,1.894,1.894,0,0,0-1.453-1.347l-10.021-2a2.13,2.13,0,0,1-1.708-2.083V43.37A2.13,2.13,0,0,1,5.5,41.287l10.021-2a1.9,1.9,0,0,0,1.453-1.347,30.1,30.1,0,0,1,2.757-6.654,1.9,1.9,0,0,0-.074-1.981l-5.669-8.5a2.13,2.13,0,0,1,.266-2.681l3.866-3.866a2.131,2.131,0,0,1,2.681-.266l8.5,5.67a1.9,1.9,0,0,0,1.981.074,30.1,30.1,0,0,1,6.654-2.757,1.894,1.894,0,0,0,1.347-1.453l2-10.021a2.13,2.13,0,0,1,2.083-1.708H48.84A2.13,2.13,0,0,1,50.923,5.5l2,10.021a1.9,1.9,0,0,0,1.347,1.453,30.1,30.1,0,0,1,6.654,2.757,1.9,1.9,0,0,0,1.981-.074l8.5-5.67a2.131,2.131,0,0,1,2.681.266l3.866,3.866a2.131,2.131,0,0,1,.266,2.681l-5.67,8.5a1.894,1.894,0,0,0-.074,1.981,30.1,30.1,0,0,1,2.757,6.654,1.894,1.894,0,0,0,1.453,1.347l10.021,2a2.13,2.13,0,0,1,1.708,2.083v5.468a2.13,2.13,0,0,1-1.708,2.083l-10.021,2a1.9,1.9,0,0,0-1.453,1.348,30.158,30.158,0,0,1-1.847,4.906,1.895,1.895,0,0,0,3.416,1.639,33.983,33.983,0,0,0,1.744-4.4l8.9-1.781a5.93,5.93,0,0,0,4.753-5.8V43.371a5.93,5.93,0,0,0-4.754-5.8l-8.9-1.781a33.9,33.9,0,0,0-2.211-5.336L81.379,22.9a5.93,5.93,0,0,0-.739-7.462L76.773,11.57a5.93,5.93,0,0,0-7.462-.739l-7.556,5.037a33.927,33.927,0,0,0-5.336-2.211l-1.781-8.9A5.929,5.929,0,0,0,48.839,0H43.371a5.93,5.93,0,0,0-5.8,4.754l-1.781,8.9a33.9,33.9,0,0,0-5.336,2.211L22.9,10.832a5.93,5.93,0,0,0-7.462.739l-3.866,3.866a5.93,5.93,0,0,0-.739,7.462l5.037,7.556a33.918,33.918,0,0,0-2.211,5.336l-8.9,1.781A5.929,5.929,0,0,0,0,43.372v5.468a5.93,5.93,0,0,0,4.754,5.8l8.9,1.781a33.9,33.9,0,0,0,2.211,5.336l-5.037,7.556a5.93,5.93,0,0,0,.739,7.462l3.866,3.866a5.93,5.93,0,0,0,7.462.739l7.556-5.037a33.917,33.917,0,0,0,5.336,2.211l1.781,8.9a5.93,5.93,0,0,0,5.8,4.753h5.468a5.93,5.93,0,0,0,5.8-4.754l1.781-8.9a33.945,33.945,0,0,0,4.272-1.683A1.9,1.9,0,0,0,61.59,74.345Z"/>
          <path id="Path_10" data-name="Path 10" d="M62.517,56.633a1.893,1.893,0,0,0,2.55-.821A21.3,21.3,0,0,0,31.239,30.854a1.895,1.895,0,0,0,2.645,2.713A17.512,17.512,0,0,1,61.7,54.083,1.9,1.9,0,0,0,62.517,56.633Z"/>
          <path id="Path_11" data-name="Path 11" d="M28.369,38a1.894,1.894,0,0,0-2.408,1.175A21.3,21.3,0,0,0,58.586,63.366a1.895,1.895,0,1,0-2.223-3.07A17.518,17.518,0,0,1,29.544,40.405,1.894,1.894,0,0,0,28.369,38Z"/>
          <path id="Path_12" data-name="Path 12" d="M116.354,82.808l-5.479-1.1a22.92,22.92,0,0,0-1.2-2.9l3.1-4.65a4.548,4.548,0,0,0-.567-5.723L109.665,65.9a4.549,4.549,0,0,0-5.723-.567l-4.65,3.1a22.884,22.884,0,0,0-2.9-1.2l-1.1-5.479a4.548,4.548,0,0,0-4.448-3.646H87.256a4.548,4.548,0,0,0-4.448,3.646l-1.1,5.479a22.954,22.954,0,0,0-2.9,1.2l-4.65-3.1a4.548,4.548,0,0,0-5.723.567L65.9,68.44a4.548,4.548,0,0,0-.567,5.723l3.1,4.65a22.9,22.9,0,0,0-1.548,4.026,1.895,1.895,0,0,0,3.649,1.021,19.12,19.12,0,0,1,1.752-4.229,1.9,1.9,0,0,0-.074-1.981l-3.726-5.589a.749.749,0,0,1,.093-.942l2.541-2.541a.749.749,0,0,1,.942-.093l5.589,3.726a1.9,1.9,0,0,0,1.981.074,19.124,19.124,0,0,1,4.229-1.752,1.894,1.894,0,0,0,1.347-1.453L86.524,62.5a.748.748,0,0,1,.732-.6h3.593a.749.749,0,0,1,.732.6L92.9,69.081a1.9,1.9,0,0,0,1.347,1.453,19.12,19.12,0,0,1,4.229,1.752,1.9,1.9,0,0,0,1.981-.074l5.589-3.726a.748.748,0,0,1,.942.093l2.541,2.541a.749.749,0,0,1,.093.942l-3.726,5.589a1.894,1.894,0,0,0-.074,1.981,19.124,19.124,0,0,1,1.752,4.229,1.894,1.894,0,0,0,1.453,1.347l6.585,1.317a.748.748,0,0,1,.6.732V90.85a.749.749,0,0,1-.6.732L109.024,92.9a1.9,1.9,0,0,0-1.453,1.347,19.12,19.12,0,0,1-1.752,4.229,1.9,1.9,0,0,0,.074,1.981l3.726,5.589a.749.749,0,0,1-.093.942l-2.541,2.541a.749.749,0,0,1-.942.093l-5.589-3.726a1.9,1.9,0,0,0-1.981-.074,19.125,19.125,0,0,1-4.229,1.752,1.894,1.894,0,0,0-1.347,1.453l-1.317,6.585a.748.748,0,0,1-.732.6H87.255a.749.749,0,0,1-.732-.6l-1.317-6.586a1.9,1.9,0,0,0-1.347-1.453,19.119,19.119,0,0,1-4.229-1.752,1.9,1.9,0,0,0-1.981.074l-5.589,3.726a.748.748,0,0,1-.942-.093l-2.541-2.541a.749.749,0,0,1-.093-.942l3.726-5.589a1.894,1.894,0,0,0,.074-1.981,19.125,19.125,0,0,1-1.752-4.229A1.894,1.894,0,0,0,69.08,92.9l-6.585-1.317a.748.748,0,0,1-.6-.732V87.256a.749.749,0,0,1,.6-.732l.4-.081a1.895,1.895,0,1,0-.744-3.716l-.4.081a4.549,4.549,0,0,0-3.646,4.448v3.593A4.548,4.548,0,0,0,61.751,95.3l5.479,1.1a22.954,22.954,0,0,0,1.2,2.9l-3.1,4.65a4.548,4.548,0,0,0,.567,5.723l2.541,2.541a4.548,4.548,0,0,0,5.723.567l4.65-3.1a22.884,22.884,0,0,0,2.9,1.2l1.1,5.479A4.549,4.549,0,0,0,87.256,120h3.593a4.548,4.548,0,0,0,4.448-3.646l1.1-5.479a22.92,22.92,0,0,0,2.9-1.2l4.65,3.1a4.548,4.548,0,0,0,5.723-.567l2.541-2.541a4.548,4.548,0,0,0,.567-5.723l-3.1-4.65a22.884,22.884,0,0,0,1.2-2.9l5.479-1.1A4.548,4.548,0,0,0,120,90.849V87.256A4.548,4.548,0,0,0,116.354,82.808Z"/>
          <path id="Path_13" data-name="Path 13" d="M89.053,82.232a6.829,6.829,0,0,1,6.821,6.821,1.895,1.895,0,0,0,3.789,0A10.611,10.611,0,1,0,89.052,99.663a10.512,10.512,0,0,0,6.483-2.21,1.895,1.895,0,1,0-2.317-3,6.755,6.755,0,0,1-4.166,1.419,6.821,6.821,0,1,1,0-13.642Z"/>
          <path id="Path_14" data-name="Path 14" d="M57.649,46.105A11.544,11.544,0,1,0,46.105,57.649,11.557,11.557,0,0,0,57.649,46.105Zm-19.3,0a7.754,7.754,0,1,1,7.754,7.754A7.763,7.763,0,0,1,38.351,46.105Z"/>
        </g>
      </g>
    </g>
  </g>
</svg>
