<svg xmlns="http://www.w3.org/2000/svg" xmlns:xlink="http://www.w3.org/1999/xlink" width="120" height="120" viewBox="0 0 120 120">
  <defs>
    <clipPath id="clip-path">
      <rect id="Rectangle_17" data-name="Rectangle 17" width="120" height="120" transform="translate(260 1162)" fill="#fff" stroke="#707070" stroke-width="1"/>
    </clipPath>
  </defs>
  <g id="Mask_Group_1" data-name="Mask Group 1" transform="translate(-260 -1162)" opacity="0.2" clip-path="url(#clip-path)">
    <g id="experience" transform="translate(260 1162)">
      <path id="Path_1" data-name="Path 1" d="M60.439,18.334A34,34,0,0,0,26.156,51.286a33.584,33.584,0,0,0,6.219,20.473A37.631,37.631,0,0,1,39.161,93.7v9.039A1.639,1.639,0,0,0,39.742,104l5.966,5.047V115.2a4.807,4.807,0,0,0,4.8,4.8H69.487a4.807,4.807,0,0,0,4.8-4.8v-6.155L80.256,104a1.639,1.639,0,0,0,.581-1.253V93.7a38.868,38.868,0,0,1,7-22.239A33.858,33.858,0,0,0,60.439,18.334Zm11.61,88.312H47.955l-4.738-4.007h33.57Zm5.508-7.288H42.443V95.344H77.557ZM71.009,115.2a1.523,1.523,0,0,1-1.522,1.522H50.513a1.523,1.523,0,0,1-1.522-1.522v-5.274H71.008ZM85.142,69.585a42.152,42.152,0,0,0-7.553,22.477H42.413a40.665,40.665,0,0,0-7.362-22.2,30.339,30.339,0,0,1-5.614-18.483,30.689,30.689,0,0,1,30.57-29.763H60.4a30.577,30.577,0,0,1,24.75,47.97Z"/>
      <path id="Path_2" data-name="Path 2" d="M78.041,52.2a18.656,18.656,0,0,0-2.165-5.25L78.027,44.8a1.64,1.64,0,0,0,0-2.32l-3.9-3.9a1.64,1.64,0,0,0-2.32,0l-2.138,2.138a18.648,18.648,0,0,0-5.258-2.187V35.509a1.641,1.641,0,0,0-1.641-1.641H57.239A1.641,1.641,0,0,0,55.6,35.509v3.018a18.648,18.648,0,0,0-5.262,2.187L48.2,38.574a1.64,1.64,0,0,0-2.32,0l-3.9,3.9a1.64,1.64,0,0,0,0,2.32l2.151,2.152a18.656,18.656,0,0,0-2.165,5.25H38.906a1.641,1.641,0,0,0-1.641,1.641v5.522A1.641,1.641,0,0,0,38.906,61h3.078a18.623,18.623,0,0,0,2.175,5.215l-2.187,2.187a1.64,1.64,0,0,0,0,2.32l3.9,3.9a1.687,1.687,0,0,0,2.32,0l2.2-2.2a18.636,18.636,0,0,0,5.2,2.151V77.7a1.641,1.641,0,0,0,1.641,1.641h5.523A1.641,1.641,0,0,0,64.4,77.7V74.583a18.636,18.636,0,0,0,5.2-2.151l2.2,2.2a1.64,1.64,0,0,0,2.32,0l3.9-3.9a1.64,1.64,0,0,0,0-2.32l-2.181-2.187A18.622,18.622,0,0,0,78.019,61h3.075a1.641,1.641,0,0,0,1.641-1.641V53.842A1.641,1.641,0,0,0,81.094,52.2Zm1.412,5.522H76.682a1.64,1.64,0,0,0-1.618,1.37A15.29,15.29,0,0,1,72.4,65.468a1.64,1.64,0,0,0,.172,2.125l1.976,1.969-1.584,1.584-1.983-1.984a1.641,1.641,0,0,0-2.114-.175,15.3,15.3,0,0,1-6.375,2.634,1.64,1.64,0,0,0-1.367,1.623v2.813h-2.25V73.245a1.64,1.64,0,0,0-1.37-1.62,15.3,15.3,0,0,1-6.375-2.634,1.641,1.641,0,0,0-2.114.175L47.033,71.15l-1.584-1.584,1.979-1.972a1.64,1.64,0,0,0,.172-2.12A15.29,15.29,0,0,1,44.936,59.1a1.64,1.64,0,0,0-1.618-1.37H40.547V55.489H43.3a1.641,1.641,0,0,0,1.62-1.379,15.291,15.291,0,0,1,2.642-6.415,1.641,1.641,0,0,0-.175-2.114l-1.935-1.935,1.584-1.584,1.928,1.928a1.641,1.641,0,0,0,2.12.172A15.259,15.259,0,0,1,57.5,41.49a1.641,1.641,0,0,0,1.371-1.626V37.146h2.25v2.719A1.641,1.641,0,0,0,62.5,41.483a15.259,15.259,0,0,1,6.416,2.673,1.639,1.639,0,0,0,2.12-.172l1.927-1.927,1.584,1.584-1.935,1.935a1.641,1.641,0,0,0-.175,2.114,15.29,15.29,0,0,1,2.642,6.415,1.641,1.641,0,0,0,1.62,1.379h2.753Z"/>
      <path id="Path_3" data-name="Path 3" d="M60,45.023A11.531,11.531,0,1,0,71.531,56.555,11.531,11.531,0,0,0,60,45.023ZM60,64.81a8.25,8.25,0,1,1,8.25-8.25A8.25,8.25,0,0,1,60,64.81Z"/>
      <path id="Path_4" data-name="Path 4" d="M60,12.734a1.641,1.641,0,0,0,1.641-1.641V1.641a1.641,1.641,0,0,0-3.281,0v9.453A1.641,1.641,0,0,0,60,12.734Z"/>
      <path id="Path_5" data-name="Path 5" d="M100.106,17.573l-6.684,6.684a1.641,1.641,0,1,0,2.32,2.32l6.684-6.684a1.641,1.641,0,0,0-2.32-2.32Z"/>
      <path id="Path_6" data-name="Path 6" d="M118.359,58.359h-9.453a1.641,1.641,0,0,0,0,3.281h9.453a1.641,1.641,0,0,0,0-3.281Z"/>
      <path id="Path_7" data-name="Path 7" d="M11.093,58.359H1.641a1.641,1.641,0,0,0,0,3.281h9.453a1.641,1.641,0,1,0,0-3.281Z"/>
      <path id="Path_8" data-name="Path 8" d="M26.578,24.258l-6.684-6.684a1.641,1.641,0,1,0-2.32,2.32l6.684,6.684a1.641,1.641,0,1,0,2.32-2.32Z"/>
    </g>
  </g>
</svg>
